<?xml version="1.0" encoding="utf-8"?>
<!-- Uploaded to: SVG Repo, www.svgrepo.com, Generator: SVG Repo Mixer Tools -->
<svg fill="#000000" viewBox="0 0 32 32" version="1.1" xmlns="http://www.w3.org/2000/svg">
<title>jcb</title>
<path d="M6.446 16.767c0.001 0.017 0.001 0.037 0.001 0.057 0 1.032-0.837 1.869-1.869 1.869-0.075 0-0.149-0.004-0.222-0.013l0.009 0.001c-1.233-0.034-2.385-0.351-3.403-0.887l0.042 0.020v1.635c1.195 0.304 2.567 0.479 3.98 0.479 0.003 0 0.006 0 0.008 0h-0c3.713 0 4.795-1.406 4.795-3.16v-4.483h-3.342v4.483zM28.77 15.919v-0.045c0.963-0.038 1.734-0.811 1.768-1.771l0-0.003c0-1.103-0.918-1.739-2.161-1.801-0.096-0.004-0.254-0.014-0.38-0.014h-6.663v7.431h7.191c1.412 0 2.471-0.755 2.471-1.933 0-1.087-0.965-1.777-2.226-1.864zM24.397 13.438h2.040c0.079 0.001 0.155 0.007 0.23 0.018l-0.009-0.001c0.446 0.077 0.782 0.461 0.782 0.924s-0.336 0.847-0.777 0.923l-0.006 0.001c-0.065 0.009-0.142 0.015-0.219 0.017l-0.002 0h-2.038v-1.881zM26.916 18.483c-0.080 0.014-0.173 0.023-0.267 0.025l-0.002 0h-2.25v-2.038h2.25c0.096 0.002 0.189 0.011 0.28 0.027l-0.011-0.002c0.456 0.108 0.79 0.512 0.79 0.994s-0.334 0.886-0.783 0.993l-0.007 0.001zM17.312 13.331c1.090 0.090 2.090 0.396 2.983 0.875l-0.041-0.020v-1.637c-0.887-0.225-1.929-0.388-2.998-0.457l-0.052-0.003c-5.156-0.231-6.617 1.792-6.617 3.91s1.461 4.142 6.617 3.911c1.122-0.073 2.164-0.238 3.173-0.487l-0.123 0.026v-1.635c-0.853 0.456-1.853 0.761-2.914 0.852l-0.029 0.002c-2.099 0.159-3.361-0.863-3.361-2.667 0-1.805 1.263-2.826 3.361-2.668z"></path>
</svg>